<svg width="100" height="100" viewBox="0 0 100 100" fill="none" xmlns="http://www.w3.org/2000/svg">
<path fill-rule="evenodd" clip-rule="evenodd" d="M31.9919 57.2841L33.2399 54.3841C34.5879 55.3921 36.3839 55.9161 38.1559 55.9161C39.4639 55.9161 40.2919 55.4121 40.2919 54.6481C40.2719 52.5121 32.4559 54.1841 32.3959 48.8281C32.3759 46.1081 34.7919 44.0121 38.2159 44.0121C40.2519 44.0121 42.2839 44.5161 43.7359 45.6641L42.5679 48.6241C41.2399 47.7761 39.5879 47.1721 38.0159 47.1721C36.9479 47.1721 36.2439 47.6761 36.2439 48.3201C36.2639 50.4161 44.1399 49.2681 44.2199 54.3841C44.2199 57.1641 41.8639 59.1201 38.4799 59.1201C35.9999 59.1161 33.7239 58.5321 31.9919 57.2841ZM79.9159 53.3361C79.2919 54.4241 78.1239 55.1681 76.7719 55.1681C74.7759 55.1681 73.1679 53.5561 73.1679 51.5641C73.1679 49.5721 74.7799 47.9601 76.7719 47.9601C78.1199 47.9601 79.2919 48.7041 79.9159 49.7921L83.3599 47.8801C82.0719 45.5841 79.5919 44.0121 76.7719 44.0121C72.5999 44.0121 69.2159 47.3961 69.2159 51.5681C69.2159 55.7401 72.5999 59.1241 76.7719 59.1241C79.6119 59.1241 82.0719 57.5721 83.3599 55.2561L79.9159 53.3361ZM45.9519 37.7441H50.2639V58.8361H45.9519V37.7441ZM85.0519 37.7441V58.8361H89.3639V52.5081L94.4799 58.8361H99.9999L93.4919 51.3201L99.5159 44.3081H94.2359L89.3599 50.1281V37.7441H85.0519Z" fill="black"/>
<path d="M63.076 53.3763C62.452 54.4043 61.164 55.1683 59.712 55.1683C57.716 55.1683 56.108 53.5563 56.108 51.5643C56.108 49.5723 57.72 47.9603 59.712 47.9603C61.164 47.9603 62.452 48.7643 63.076 49.8123V53.3763ZM63.076 44.3123V46.0243C62.372 44.8363 60.62 44.0083 58.784 44.0083C54.996 44.0083 52.016 47.3523 52.016 51.5443C52.016 55.7363 54.996 59.1203 58.784 59.1203C60.616 59.1203 62.368 58.2963 63.076 57.1043V58.8163H67.388V44.3123H63.076Z" fill="black"/>
<path fill-rule="evenodd" clip-rule="evenodd" d="M5.34002 53.3563C5.34002 54.8283 4.15202 56.0163 2.68002 56.0163C1.20802 56.0163 0.0200195 54.8243 0.0200195 53.3563C0.0200195 51.8883 1.20802 50.6963 2.68002 50.6963H5.34002V53.3563ZM6.66802 53.3563C6.66802 51.8843 7.85602 50.6963 9.32802 50.6963C10.8 50.6963 11.988 51.8843 11.988 53.3563V60.0043C11.988 61.4763 10.8 62.6643 9.32802 62.6643C7.85602 62.6643 6.66802 61.4763 6.66802 60.0043V53.3563Z" fill="#E01E5A"/>
<path fill-rule="evenodd" clip-rule="evenodd" d="M9.328 42.6804C7.856 42.6804 6.668 41.4924 6.668 40.0204C6.668 38.5484 7.856 37.3604 9.328 37.3604C10.8 37.3604 11.988 38.5484 11.988 40.0204V42.6804H9.328ZM9.328 44.0284C10.8 44.0284 11.988 45.2164 11.988 46.6884C11.988 48.1604 10.8 49.3484 9.328 49.3484H2.66C1.188 49.3484 0 48.1564 0 46.6884C0 45.2204 1.188 44.0284 2.66 44.0284H9.328Z" fill="#36C5F0"/>
<path fill-rule="evenodd" clip-rule="evenodd" d="M19.984 46.6884C19.984 45.2164 21.172 44.0284 22.644 44.0284C24.116 44.0284 25.304 45.2164 25.304 46.6884C25.304 48.1604 24.116 49.3484 22.644 49.3484H19.984V46.6884ZM18.656 46.6884C18.656 48.1604 17.4681 49.3484 15.9961 49.3484C14.5241 49.3484 13.3361 48.1604 13.3361 46.6884V40.0204C13.3361 38.5484 14.5241 37.3604 15.9961 37.3604C17.4681 37.3604 18.656 38.5484 18.656 40.0204V46.6884Z" fill="#2EB67D"/>
<path fill-rule="evenodd" clip-rule="evenodd" d="M15.9961 57.3443C17.468 57.3443 18.656 58.5323 18.656 60.0043C18.656 61.4763 17.468 62.6643 15.9961 62.6643C14.5241 62.6643 13.3361 61.4763 13.3361 60.0043V57.3443H15.9961ZM15.9961 56.0163C14.5241 56.0163 13.3361 54.8283 13.3361 53.3563C13.3361 51.8843 14.5241 50.6963 15.9961 50.6963H22.664C24.136 50.6963 25.324 51.8843 25.324 53.3563C25.324 54.8283 24.136 56.0163 22.664 56.0163H15.9961Z" fill="#ECB22E"/>
</svg>
