<svg width="100" height="100" viewBox="0 0 100 100" fill="none" xmlns="http://www.w3.org/2000/svg">
<g clip-path="url(#clip0_2_3156)">
<path d="M100 48.9834V47.2248H97.8161V44.4907L97.7425 44.5134L95.6913 45.141L95.6508 45.1533V47.2249H92.4132V46.0708C92.4132 45.5334 92.5333 45.1222 92.7701 44.848C93.0053 44.577 93.3417 44.4393 93.7707 44.4393C94.0791 44.4393 94.3984 44.5119 94.7197 44.6552L94.8003 44.6912V42.839L94.7624 42.8251C94.4626 42.7174 94.0549 42.6631 93.5494 42.6631C92.9124 42.6631 92.3337 42.8017 91.8289 43.0764C91.3239 43.3516 90.9266 43.7443 90.6483 44.2437C90.3709 44.7424 90.2302 45.3185 90.2302 45.956V47.2248H88.7095V48.9834H90.2302V56.3923H92.4132V48.9834H95.6508V53.6917C95.6508 55.6307 96.5655 56.6134 98.3693 56.6134C98.6657 56.6134 98.9777 56.5787 99.2962 56.5107C99.6205 56.4408 99.8413 56.3711 99.9713 56.2966L100 56.2796V54.5046L99.9113 54.5634C99.7928 54.6423 99.6452 54.7068 99.4723 54.7548C99.2985 54.8036 99.1534 54.8281 99.041 54.8281C98.6185 54.8281 98.3058 54.7143 98.1119 54.4895C97.9157 54.2628 97.8162 53.8663 97.8162 53.3116V48.9834H100ZM83.8344 54.8284C83.042 54.8284 82.4173 54.5657 81.9771 54.0481C81.5341 53.528 81.3097 52.7864 81.3097 51.8442C81.3097 50.8721 81.5341 50.1113 81.9773 49.5819C82.4178 49.0561 83.0365 48.7892 83.8166 48.7892C84.5736 48.7892 85.1761 49.0441 85.6078 49.5472C86.0415 50.0529 86.2617 50.8077 86.2617 51.7911C86.2617 52.7866 86.0547 53.5513 85.6465 54.0628C85.241 54.5705 84.6314 54.8284 83.8344 54.8284ZM83.9314 47.0039C82.4197 47.0039 81.2191 47.4469 80.363 48.3205C79.5074 49.1942 79.0737 50.4033 79.0737 51.9145C79.0737 53.3499 79.4971 54.5044 80.3323 55.3456C81.1675 56.187 82.3041 56.6132 83.7104 56.6132C85.1757 56.6132 86.3525 56.164 87.2082 55.2783C88.0639 54.3936 88.4973 53.1959 88.4973 51.72C88.4973 50.2622 88.0906 49.099 87.288 48.2635C86.485 47.4276 85.3555 47.0039 83.9314 47.0039ZM75.5539 47.0039C74.5256 47.0039 73.675 47.2669 73.0253 47.7855C72.3715 48.3072 72.0399 48.9915 72.0399 49.8194C72.0399 50.2498 72.1115 50.6321 72.2524 50.9564C72.3941 51.2817 72.6134 51.5681 72.9047 51.8085C73.1939 52.047 73.6402 52.2967 74.2317 52.5509C74.7289 52.7555 75.0997 52.9285 75.3352 53.0649C75.5655 53.1986 75.7288 53.333 75.8211 53.4639C75.9108 53.5919 75.9563 53.7672 75.9563 53.9835C75.9563 54.5994 75.495 54.8991 74.546 54.8991C74.1939 54.8991 73.7924 54.8256 73.3525 54.6807C72.9158 54.538 72.5036 54.329 72.1304 54.061L72.0397 53.996V56.0978L72.073 56.1133C72.3819 56.2559 72.7713 56.3761 73.2304 56.4707C73.6885 56.5654 74.1047 56.6136 74.4663 56.6136C75.5822 56.6136 76.4808 56.3493 77.1364 55.8276C77.7963 55.3023 78.1307 54.602 78.1307 53.7454C78.1307 53.1274 77.9507 52.5975 77.5958 52.1701C77.2434 51.7462 76.6318 51.357 75.7787 51.013C75.099 50.7403 74.6636 50.5138 74.4839 50.34C74.3108 50.172 74.2229 49.9345 74.2229 49.6338C74.2229 49.3672 74.3314 49.1536 74.5542 48.9806C74.7787 48.8068 75.0913 48.7184 75.4832 48.7184C75.847 48.7184 76.2191 48.7758 76.5892 48.8884C76.959 49.001 77.2839 49.1518 77.555 49.3363L77.6442 49.3973V47.4035L77.61 47.3888C77.3598 47.2816 77.0299 47.1898 76.6292 47.1153C76.2304 47.0413 75.8686 47.0039 75.5539 47.0039ZM66.3489 54.8284C65.5567 54.8284 64.9318 54.5657 64.4917 54.0481C64.0486 53.528 63.8246 52.7866 63.8246 51.8442C63.8246 50.8721 64.0489 50.1113 64.4921 49.5819C64.9323 49.0561 65.5509 48.7892 66.3314 48.7892C67.088 48.7892 67.6906 49.0441 68.1223 49.5472C68.5562 50.0529 68.7763 50.8077 68.7763 51.7911C68.7763 52.7866 68.5692 53.5513 68.1609 54.0628C67.7555 54.5705 67.1462 54.8284 66.3489 54.8284ZM66.4462 47.0039C64.9341 47.0039 63.7333 47.4469 62.8777 48.3205C62.0222 49.1942 61.5881 50.4033 61.5881 51.9145C61.5881 53.3505 62.0118 54.5044 62.8471 55.3456C63.6823 56.187 64.8188 56.6132 66.2251 56.6132C67.6902 56.6132 68.8673 56.164 69.723 55.2783C70.5784 54.3936 71.0121 53.1959 71.0121 51.72C71.0121 50.2622 70.6052 49.099 69.8024 48.2635C68.9992 47.4276 67.8699 47.0039 66.4462 47.0039ZM58.2744 48.8124V47.2248H56.1179V56.3922H58.2744V51.7027C58.2744 50.9053 58.4552 50.2502 58.8119 49.7554C59.1641 49.2665 59.6335 49.0187 60.2066 49.0187C60.4008 49.0187 60.6189 49.0508 60.855 49.1141C61.0887 49.1771 61.258 49.2455 61.3578 49.3175L61.4485 49.3831V47.2091L61.4135 47.1941C61.2127 47.1088 60.9286 47.0657 60.5691 47.0657C60.0272 47.0657 59.5423 47.2399 59.1269 47.5827C58.7623 47.884 58.4988 48.2972 58.2973 48.8124H58.2744ZM52.2562 47.0039C51.2669 47.0039 50.3844 47.2161 49.6339 47.6343C48.8817 48.0534 48.3001 48.6518 47.9043 49.4127C47.5103 50.1718 47.3103 51.0585 47.3103 52.0474C47.3103 52.9135 47.5042 53.7084 47.8876 54.409C48.2712 55.1107 48.814 55.6597 49.5012 56.0404C50.1875 56.4207 50.9806 56.6135 51.8588 56.6135C52.8836 56.6135 53.7586 56.4086 54.4601 56.0045L54.4884 55.9883V54.0126L54.3978 54.0788C54.08 54.3103 53.7249 54.4951 53.3428 54.6282C52.9617 54.7612 52.6142 54.8284 52.3095 54.8284C51.4633 54.8284 50.784 54.5636 50.291 54.0417C49.7969 53.519 49.5463 52.7851 49.5463 51.8615C49.5463 50.9322 49.8076 50.1794 50.3225 49.6239C50.8359 49.0701 51.5164 48.7892 52.3451 48.7892C53.0538 48.7892 53.7445 49.0292 54.398 49.5032L54.4884 49.5689V47.4872L54.4592 47.4708C54.2133 47.3331 53.8779 47.2194 53.4616 47.1333C53.047 47.0473 52.6415 47.0039 52.2562 47.0039ZM45.8251 47.2249H43.6687V56.3922H45.8251V47.2249ZM44.7689 43.3195C44.414 43.3195 44.1045 43.4404 43.8501 43.6798C43.5948 43.9199 43.4652 44.2222 43.4652 44.5789C43.4652 44.9301 43.5932 45.2269 43.8462 45.4606C44.0975 45.6936 44.408 45.8117 44.769 45.8117C45.13 45.8117 45.4416 45.6936 45.696 45.461C45.9519 45.2269 46.0817 44.9302 46.0817 44.5789C46.0817 44.2347 45.9554 43.9355 45.7065 43.6895C45.4578 43.4439 45.1422 43.3195 44.7689 43.3195ZM39.3885 46.5485V56.3922H41.5892V43.6002H38.5433L34.6718 53.1017L30.9147 43.6002H27.7448V56.3921H29.8129V46.5475H29.8839L33.8513 56.3922H35.412L39.3175 46.5485H39.3885Z" fill="#706D6E"/>
<path d="M10.1445 49.4702H0V39.3257H10.1445V49.4702Z" fill="#F1511B"/>
<path d="M21.3451 49.4702H11.2008V39.3257H21.3451V49.4702Z" fill="#80CC28"/>
<path d="M10.1442 60.6746H0V50.5303H10.1442V60.6746Z" fill="#00ADEF"/>
<path d="M21.3451 60.6746H11.2008V50.5303H21.3451V60.6746Z" fill="#FBBC09"/>
</g>
<defs>
<clipPath id="clip0_2_3156">
<rect width="100" height="100" fill="white"/>
</clipPath>
</defs>
</svg>
