<svg width="100" height="100" viewBox="0 0 100 100" fill="none" xmlns="http://www.w3.org/2000/svg">
<g clip-path="url(#clip0_2_3149)">
<path d="M12.3154 33.6826H13.2047C16.2919 33.7497 19.3289 34.9913 21.5101 37.1893C20.7047 38.0115 19.8826 38.8001 19.094 39.6222C17.8691 38.5148 16.3926 37.6591 14.7819 37.3571C12.3993 36.8538 9.83222 37.3068 7.83557 38.6659C5.65436 40.092 4.17785 42.5081 3.85906 45.092C3.50671 47.6424 4.22819 50.327 5.88926 52.3068C7.48322 54.2364 9.91611 55.4444 12.4329 55.5283C14.7819 55.6625 17.2315 54.9411 18.943 53.2968C20.2852 52.139 20.906 50.3773 21.1074 48.6659C18.3221 48.6659 15.5369 48.6827 12.7517 48.6659V45.2095H24.4799C25.0839 48.9176 24.2114 53.0954 21.3926 55.7464C19.5134 57.6256 16.9128 58.733 14.2617 58.9511C11.6946 59.2028 9.04362 58.7162 6.76174 57.4746C4.02685 56.0149 1.84564 53.5484 0.771812 50.6457C-0.234899 47.978 -0.251678 44.9578 0.687919 42.2732C1.54362 39.8236 3.18792 37.6591 5.30201 36.1491C7.33222 34.6558 9.79866 33.8336 12.3154 33.6826Z" fill="#3780FF"/>
<path d="M79.5973 34.5552H83.1879V58.5149C81.9966 58.5149 80.7886 58.5317 79.5973 58.4981C79.6141 50.5283 79.5973 42.5417 79.5973 34.5552Z" fill="#38B137"/>
<path d="M32.4665 42.8608C34.6812 42.4413 37.0806 42.9111 38.9094 44.2366C40.5705 45.4111 41.7282 47.2567 42.0806 49.2702C42.5336 51.6024 41.9631 54.1527 40.453 55.9983C38.8255 58.0621 36.1577 59.1695 33.5571 59.0017C31.1745 58.8675 28.8591 57.6762 27.4497 55.7299C25.8557 53.5822 25.4698 50.6292 26.3423 48.1124C27.2148 45.4111 29.6812 43.3473 32.4665 42.8608ZM32.9698 46.0487C32.0638 46.2836 31.2248 46.8037 30.6208 47.542C28.9933 49.4883 29.094 52.6594 30.8893 54.4715C31.9128 55.5118 33.4564 55.9983 34.8826 55.7131C36.2081 55.4782 37.3658 54.589 38.0034 53.4145C39.1108 51.4178 38.792 48.6661 37.0973 47.1057C36.0067 46.099 34.4128 45.6795 32.9698 46.0487Z" fill="#FA3913"/>
<path d="M50.2517 42.8605C52.7852 42.3739 55.5537 43.0786 57.4497 44.8572C60.5369 47.6256 60.8725 52.8102 58.2383 55.9981C56.6443 58.0115 54.0604 59.1189 51.5101 59.0014C49.0772 58.9343 46.6779 57.7263 45.2349 55.7296C43.6074 53.5316 43.2551 50.5115 44.1779 47.9444C45.1007 45.327 47.5168 43.3303 50.2517 42.8605ZM50.755 46.0484C49.849 46.2833 49.0101 46.8035 48.4061 47.5249C46.7953 49.4377 46.8624 52.5585 48.5906 54.3874C49.6141 55.478 51.2081 56.0149 52.6846 55.7129C53.9933 55.4612 55.1678 54.5887 55.8054 53.4142C56.896 51.4008 56.5772 48.6491 54.8658 47.0887C53.7752 46.082 52.1812 45.6793 50.755 46.0484Z" fill="#FCBD06"/>
<path d="M65.3355 43.8337C67.265 42.6257 69.8322 42.2901 71.9127 43.3304C72.5671 43.6156 73.104 44.1022 73.6241 44.5887C73.6409 44.1357 73.6241 43.6659 73.6409 43.1961C74.7651 43.2129 75.8892 43.1961 77.0302 43.2129V58.0115C77.0134 60.2431 76.4429 62.6089 74.8322 64.2364C73.0704 66.0317 70.3691 66.5854 67.9362 66.2162C65.3355 65.8303 63.0704 63.9344 62.0637 61.535C63.0704 61.0485 64.1275 60.6625 65.1677 60.2095C65.755 61.5854 66.9463 62.7599 68.4395 63.0283C69.9328 63.2968 71.661 62.9276 72.6342 61.686C73.6744 60.4109 73.6744 58.6659 73.6241 57.1055C72.8523 57.8605 71.963 58.5317 70.8892 58.7834C68.557 59.4377 65.9899 58.6323 64.1946 57.0552C62.3825 55.478 61.3087 53.0451 61.4093 50.629C61.4597 47.8941 63.0033 45.2599 65.3355 43.8337ZM68.8087 45.9814C67.7852 46.1491 66.8288 46.7196 66.1744 47.5082C64.5973 49.3874 64.5973 52.3907 66.1912 54.2364C67.0973 55.327 68.557 55.931 69.9664 55.78C71.2919 55.6458 72.5167 54.8068 73.1711 53.6491C74.2785 51.686 74.0939 49.0183 72.6006 47.3069C71.6778 46.2498 70.2013 45.7297 68.8087 45.9814Z" fill="#3780FF"/>
<path d="M87.5 44.6896C89.5135 42.8104 92.6175 42.1729 95.2014 43.1628C97.6511 44.0856 99.2115 46.4178 100 48.8172C96.3591 50.3272 92.7349 51.8205 89.094 53.3306C89.5973 54.287 90.3692 55.1594 91.4094 55.5118C92.8692 56.0319 94.6141 55.8474 95.839 54.8742C96.3256 54.5051 96.7115 54.0185 97.0806 53.5487C98.0034 54.1695 98.9262 54.7735 99.849 55.3943C98.5403 57.3574 96.3423 58.7333 93.9765 58.9514C91.3591 59.2702 88.5739 58.2635 86.8792 56.2165C84.094 52.995 84.3624 47.5923 87.5 44.6896ZM89.2953 47.7937C88.7249 48.6158 88.49 49.6225 88.5067 50.6125C90.9396 49.6057 93.3725 48.599 95.8054 47.5755C95.4027 46.6359 94.4296 46.0655 93.4396 45.9145C91.8457 45.6292 90.1846 46.4849 89.2953 47.7937Z" fill="#FA3913"/>
</g>
<defs>
<clipPath id="clip0_2_3149">
<rect width="100" height="100" fill="white"/>
</clipPath>
</defs>
</svg>
