<svg width="100" height="100" viewBox="0 0 100 100" fill="none" xmlns="http://www.w3.org/2000/svg">
<g clip-path="url(#clip0_2_3144)">
<path d="M15.9463 38.8379C15.967 38.8379 25.9238 38.8389 28.4072 39.5029C29.7819 39.8734 30.8622 40.9536 31.2275 42.3232C31.8922 44.8093 31.8926 50 31.8926 50C31.8926 50.0306 31.8902 55.197 31.2275 57.6758C30.8572 59.0506 29.777 60.1317 28.4072 60.4971C25.9238 61.1611 15.967 61.1621 15.9463 61.1621C15.9463 61.1621 5.97649 61.1618 3.48535 60.4971C2.11053 60.1266 1.03028 59.0456 0.665039 57.6758C0.00315067 55.2 1.14042e-05 50.0428 0 50C0 50 0.00033311 44.8093 0.665039 42.3232C1.03547 40.9486 2.1158 39.8682 3.48535 39.5029C5.97649 38.8382 15.9463 38.8379 15.9463 38.8379ZM12.7598 54.7842L21.0449 50L12.7598 45.2158V54.7842Z" fill="#FF0000"/>
<path fill-rule="evenodd" clip-rule="evenodd" d="M46.2914 59.1471C45.6623 58.721 45.2107 58.0614 44.9469 57.1635C44.683 56.2654 44.546 55.0731 44.546 53.5814V51.552C44.546 50.0452 44.6982 48.8377 45.0027 47.9243C45.3071 47.0112 45.7841 46.3466 46.4283 45.9305C47.0727 45.5145 47.92 45.3014 48.9702 45.3014C50.0053 45.3014 50.8323 45.5145 51.4562 45.9407C52.0803 46.3668 52.5369 47.0315 52.8261 47.9346C53.1153 48.8377 53.2575 50.0452 53.2575 51.5469V53.5764C53.2575 55.068 53.1153 56.2654 52.8362 57.1684C52.5572 58.0715 52.1007 58.7362 51.4664 59.1522C50.8373 59.5682 49.9798 59.7815 48.8991 59.7815C47.7931 59.7864 46.9205 59.5733 46.2914 59.1471V59.1471ZM49.8276 56.9554C50.0001 56.4988 50.0915 55.7529 50.0915 54.7231V50.3649C50.0915 49.3602 50.0053 48.6297 49.8276 48.1629C49.6552 47.7012 49.3457 47.4678 48.9042 47.4678C48.4781 47.4678 48.1787 47.7012 48.0012 48.1629C47.8286 48.6246 47.7374 49.3602 47.7374 50.3649V54.7231C47.7374 55.758 47.8185 56.5039 47.986 56.9554C48.1534 57.412 48.4578 57.6403 48.8993 57.6403C49.3457 57.6403 49.6501 57.412 49.8276 56.9554V56.9554ZM94.7287 53.6169V54.3223C94.7287 55.2202 94.7541 55.8899 94.81 56.3414C94.8606 56.788 94.9723 57.1177 95.1397 57.3208C95.3071 57.5236 95.5658 57.6302 95.9158 57.6302C96.3878 57.6302 96.7124 57.4476 96.885 57.0822C97.0575 56.7169 97.1537 56.1081 97.1691 55.2557L99.8834 55.4131C99.8987 55.5347 99.9037 55.7022 99.9037 55.9152C99.9037 57.2091 99.5485 58.173 98.8433 58.8122C98.1381 59.4515 97.1387 59.7711 95.8449 59.7711C94.2924 59.7711 93.2067 59.2841 92.5826 58.31C91.9585 57.3359 91.6491 55.8341 91.6491 53.7946V51.3542C91.6491 49.2537 91.9738 47.7265 92.618 46.7576C93.2624 45.7936 94.3684 45.3115 95.9363 45.3115C97.0169 45.3115 97.8439 45.5095 98.4222 45.9052C99.0006 46.3009 99.4065 46.9147 99.645 47.7519C99.8784 48.589 100 49.7459 100 51.2172V53.6119H94.7287V53.6169ZM95.1295 47.7316C94.9721 47.9296 94.8657 48.2542 94.8098 48.7007C94.754 49.1471 94.7287 49.8322 94.7287 50.7402V51.7449H97.0321V50.7402C97.0321 49.8421 97.0017 49.1624 96.9407 48.7007C96.8799 48.239 96.7683 47.9093 96.611 47.7215C96.4536 47.5338 96.2051 47.4374 95.8702 47.4374C95.5354 47.4323 95.2868 47.5338 95.1295 47.7316ZM38.6303 53.3531L35.0485 40.4206H38.1736L39.4269 46.2807C39.7465 47.7266 39.9799 48.9544 40.1321 49.9742H40.2233C40.3299 49.2435 40.5633 48.0208 40.9287 46.3009L42.2274 40.4155H45.3527L41.7303 53.3531V59.5581H38.6303V53.3531ZM63.4197 45.5754V59.553H60.959L60.685 57.8432H60.619C59.9494 59.137 58.9448 59.7814 57.6104 59.7814C56.6821 59.7814 55.997 59.4769 55.5557 58.8681C55.1143 58.2592 54.8962 57.3106 54.8962 56.0168V45.5754H58.0418V55.8392C58.0418 56.4632 58.1077 56.9098 58.2447 57.1736C58.3817 57.4373 58.61 57.5743 58.9296 57.5743C59.2036 57.5743 59.4674 57.4931 59.716 57.3258C59.9646 57.1583 60.1523 56.9452 60.2741 56.6865V45.5753L63.4197 45.5754ZM79.5638 45.5754V59.553H77.1031L76.8291 57.8432H76.7631C76.0934 59.137 75.0889 59.7814 73.7545 59.7814C72.8262 59.7814 72.1411 59.4769 71.6998 58.8681C71.2584 58.2592 71.0402 57.3106 71.0402 56.0168V45.5754H74.1859V55.8392C74.1859 56.4632 74.2518 56.9098 74.3888 57.1736C74.5257 57.4373 74.7541 57.5743 75.0737 57.5743C75.3477 57.5743 75.6115 57.4931 75.8601 57.3258C76.1087 57.1583 76.2964 56.9452 76.4182 56.6865V45.5753L79.5638 45.5754Z" fill="#282828"/>
<path fill-rule="evenodd" clip-rule="evenodd" d="M71.9738 42.9523H68.8485V59.5529H65.7688V42.9523H62.6436V40.4207H71.9687V42.9523H71.9738ZM89.9798 47.8127C89.7871 46.9299 89.4827 46.2907 89.0565 45.895C88.6304 45.4992 88.047 45.3013 87.301 45.3013C86.7228 45.3013 86.1849 45.4637 85.6826 45.7935C85.1803 46.1181 84.7947 46.5495 84.5207 47.0822H84.4954V39.7153H81.4614V59.558H84.059L84.3786 58.2339H84.4447C84.6882 58.7057 85.0534 59.0761 85.5405 59.35C86.0275 59.624 86.5655 59.761 87.159 59.761C88.2245 59.761 89.0057 59.2688 89.5081 58.2896C90.0103 57.3105 90.259 55.7783 90.259 53.693V51.4809C90.2641 49.9182 90.1676 48.6955 89.9798 47.8128V47.8127ZM87.093 53.5154C87.093 54.5352 87.0524 55.3317 86.9663 55.9101C86.885 56.4886 86.743 56.8995 86.5451 57.1431C86.3472 57.3865 86.0834 57.5083 85.7485 57.5083C85.4897 57.5083 85.2514 57.4475 85.0281 57.3257C84.81 57.2039 84.6273 57.0213 84.4903 56.7777V48.8377C84.5969 48.4571 84.7795 48.1476 85.0383 47.9042C85.297 47.6606 85.576 47.5388 85.8804 47.5388C86.2001 47.5388 86.4486 47.6656 86.6212 47.9141C86.7937 48.1629 86.9155 48.5889 86.9864 49.1775C87.0525 49.7711 87.0879 50.6133 87.0879 51.7091V53.5154H87.093Z" fill="#282828"/>
</g>
<defs>
<clipPath id="clip0_2_3144">
<rect width="100" height="100" fill="white"/>
</clipPath>
</defs>
</svg>
