<svg width="18" height="18" viewBox="0 0 18 18" fill="none" xmlns="http://www.w3.org/2000/svg">
<path d="M9 3C9.03603 3 14.6389 3.0015 16.043 3.38574C16.8137 3.59342 17.4213 4.20087 17.6289 4.97168C18.0145 6.38012 18 9.31641 18 9.31641C18 9.33769 17.9982 12.2421 17.6289 13.6455C17.4213 14.4164 16.814 15.0249 16.043 15.2324C14.6365 15.6027 9.01668 15.6025 9 15.6025C9 15.6025 3.3803 15.6033 1.95703 15.2178C1.186 15.0101 0.578752 14.4018 0.371094 13.6309C0.00261305 12.2453 1.26186e-05 9.33576 0 9.30176C0 9.30176 0.000444037 6.38012 0.371094 4.97168C0.578707 4.20096 1.2011 3.57859 1.95703 3.37109C3.36561 3.00031 9 3 9 3ZM7.20605 12L11.8916 9.30176L7.20605 6.60352V12Z" fill="white"/>
</svg>
