<svg width="100" height="100" viewBox="0 0 100 100" fill="none" xmlns="http://www.w3.org/2000/svg">
<path d="M15.9188 40.1504H0.0488281V44.0104L1.49883 49.7504L6.04883 50.0104L9.90883 46.1504L17.5488 44.5104L15.9188 40.1504Z" fill="#00C425"/>
<path d="M0.0488281 44.0103V59.8802H3.90883L10.3688 59.3402L9.91883 53.8702L0.0488281 44.0103Z" fill="#3AF23A"/>
<path d="M3.90625 59.8798H19.7762V56.0198L18.0862 50.8798L13.7662 50.0098L3.90625 59.8798Z" fill="#006446"/>
<path d="M95.6783 47.98L92.1883 51.1501L95.6783 54.3402V56.1802H95.5683L90.3883 51.4801V55.9502H88.8883V42.4299H90.3883V50.8801L95.5383 46.19H95.6783V47.98ZM27.9883 55.9502H35.6483V54.4402H29.5483V42.8699H27.9883V55.9502ZM40.9483 46.2C38.5983 46.2 36.4583 48.11 36.4583 51.1901C36.4583 54.1802 38.4183 56.1602 41.2383 56.1602C42.4983 56.1602 43.6583 55.8402 44.7083 55.0802V53.4702C43.6083 54.3902 42.3883 54.7802 41.2883 54.7802C39.5983 54.7802 38.0983 53.7302 37.9583 51.7701H45.0983C45.1183 51.5801 45.1583 51.1601 45.1583 51.0001C45.1583 47.85 43.2583 46.2 40.9483 46.2ZM40.9583 47.57C42.2883 47.57 43.6383 48.4301 43.6883 50.4601H37.9483C38.0383 48.8901 39.2483 47.57 40.9583 47.57ZM66.1483 46.2C64.8783 46.2 63.9583 46.87 63.4083 47.86C62.9483 46.8 62.0983 46.2 60.7383 46.2C59.5483 46.2 58.6683 46.89 58.1883 47.81H58.1483L57.9683 46.39H56.7783V55.9402H58.2983V49.9101C58.2983 48.7401 59.0283 47.65 60.3483 47.65C61.6383 47.65 62.2083 48.4101 62.2083 49.7901V55.9502H63.7283V49.8101C63.7283 48.7001 64.4683 47.65 65.7683 47.65C67.0783 47.65 67.6383 48.4101 67.6383 49.7901V55.9502H69.1583V49.5801C69.1683 47.58 68.2383 46.2 66.1483 46.2ZM75.3183 46.2C73.0383 46.2 70.9083 48.13 70.9083 51.1901C70.9083 54.2102 73.0283 56.1602 75.3183 56.1602C76.7483 56.1602 78.0983 55.4902 78.8183 54.1602H78.8383L79.0183 55.9502H80.2583V46.4H79.0183L78.8383 48.19H78.8183C78.0983 46.88 76.7483 46.2 75.3183 46.2ZM75.5983 47.62C77.3983 47.62 78.7683 49.0701 78.7683 51.1801C78.7683 53.2802 77.4083 54.7402 75.5983 54.7402C73.8283 54.7402 72.4283 53.3102 72.4283 51.2001C72.4283 49.0501 73.8283 47.62 75.5983 47.62ZM86.7383 46.29C85.9083 46.29 84.6483 46.68 83.9983 47.92H83.9783L83.8183 46.4H82.5983V55.9502H84.1183V50.4501C84.1183 48.2401 85.9083 47.55 87.3783 47.85V46.34C87.1783 46.31 86.9883 46.29 86.7383 46.29ZM54.8283 46.18H54.7083L50.7183 50.1601L46.7383 46.18H46.6183V48.11L49.6883 51.1801L46.6183 54.2302V56.1802H46.7383L50.6983 52.1801L54.7083 56.1802H54.8283V54.2202L51.7283 51.1501L54.8283 48.03V46.18ZM95.6783 42.6399V42.4299H97.3383V42.6399H96.6383V44.3H96.3883V42.6299C96.3783 42.6399 95.6783 42.6399 95.6783 42.6399ZM98.1783 42.4299L98.8983 44.01L99.6183 42.4299H99.9583V44.3H99.7183V42.7299L98.9983 44.3H98.7883L98.0783 42.7299V44.3H97.8383V42.4199H98.1783V42.4299Z" fill="#32323C"/>
<path d="M19.7819 56.0204V40.1504H15.9219L9.92188 46.1504L19.7819 56.0204Z" fill="#008A44"/>
</svg>
