<svg width="28" height="28" viewBox="0 0 28 28" fill="none" xmlns="http://www.w3.org/2000/svg">
<path d="M8.89457 27.0343L9.37955 23.9538L8.29924 23.9287H3.14062L6.7256 1.19762C6.73627 1.12817 6.77154 1.06486 6.82499 1.01924C6.87844 0.973623 6.9465 0.94873 7.01677 0.949101H15.7149C18.6025 0.949101 20.5953 1.55 21.6358 2.73602C22.1235 3.29241 22.4342 3.87383 22.5844 4.51367C22.742 5.18505 22.7448 5.98717 22.5909 6.96548L22.5798 7.03688V7.66374L23.0675 7.94008C23.4399 8.12873 23.7746 8.38392 24.0551 8.69305C24.4724 9.16876 24.7423 9.77337 24.8563 10.4902C24.9741 11.2274 24.9351 12.1046 24.7423 13.0978C24.5197 14.2402 24.1599 15.2352 23.674 16.0494C23.2453 16.7788 22.6688 17.4105 21.9817 17.904C21.3363 18.3621 20.5694 18.7098 19.7023 18.9324C18.8622 19.1512 17.9043 19.2616 16.8536 19.2616H16.1767C15.6927 19.2616 15.2225 19.4359 14.8534 19.7484C14.4849 20.0643 14.2404 20.5007 14.1635 20.9799L14.1125 21.2572L13.2557 26.6865L13.2167 26.8859C13.2065 26.949 13.1889 26.9805 13.163 27.0018C13.1378 27.0224 13.1064 27.0338 13.0739 27.0343H8.89457Z" fill="#253B80"/>
<path d="M23.5296 7.10962C23.5036 7.27561 23.474 7.4453 23.4406 7.61964C22.2935 13.509 18.3691 15.5435 13.357 15.5435H10.8051C10.1921 15.5435 9.67561 15.9886 9.5801 16.5932L8.27352 24.8796L7.90353 27.2285C7.88879 27.3217 7.89441 27.4169 7.92002 27.5077C7.94563 27.5985 7.9906 27.6827 8.05185 27.7544C8.1131 27.8261 8.18917 27.8838 8.27483 27.9233C8.36048 27.9628 8.45368 27.9833 8.54801 27.9833H13.0742C13.6102 27.9833 14.0655 27.5939 14.1499 27.0653L14.1944 26.8353L15.0466 21.4273L15.1013 21.1305C15.1848 20.6001 15.641 20.2106 16.177 20.2106H16.8539C21.2391 20.2106 24.672 18.4302 25.6754 13.2781C26.0945 11.1258 25.8775 9.32867 24.7685 8.06475C24.417 7.67376 23.9972 7.3501 23.5296 7.10962Z" fill="#179BD7"/>
<path d="M22.3296 6.63068C21.9634 6.52473 21.5908 6.44203 21.2141 6.38309C20.4697 6.2687 19.7175 6.21382 18.9644 6.21896H12.1469C11.8874 6.21876 11.6364 6.31139 11.4393 6.4801C11.2422 6.64881 11.112 6.88247 11.0721 7.13885L9.62181 16.3248L9.58008 16.5928C9.62526 16.3003 9.77361 16.0337 9.9983 15.8412C10.223 15.6487 10.5092 15.5429 10.8051 15.543H13.357C18.3691 15.543 22.2935 13.5076 23.4405 7.61919C23.4748 7.44486 23.5036 7.27516 23.5296 7.10917C23.2269 6.95045 22.9114 6.81737 22.5865 6.71136C22.5013 6.68309 22.4157 6.6562 22.3296 6.63068Z" fill="#222D65"/>
<path d="M11.0723 7.13935C11.1118 6.8829 11.242 6.64913 11.4392 6.4805C11.6364 6.31187 11.8876 6.21958 12.147 6.22039H18.9646C19.7723 6.22039 20.5262 6.27324 21.2143 6.38452C21.6799 6.4577 22.139 6.56714 22.5876 6.71186C22.9261 6.82406 23.2404 6.95667 23.5307 7.10967C23.8719 4.93328 23.5279 3.45144 22.3511 2.10963C21.0538 0.632424 18.7124 0 15.7162 0H7.01809C6.40607 0 5.884 0.445108 5.78941 1.05064L2.16642 24.0154C2.14954 24.1221 2.15596 24.2311 2.18524 24.335C2.21451 24.4389 2.26594 24.5352 2.336 24.6173C2.40605 24.6995 2.49307 24.7654 2.59106 24.8107C2.68904 24.856 2.79568 24.8795 2.90363 24.8797H8.27367L9.62198 16.3253L11.0723 7.13935Z" fill="#253B80"/>
</svg>
