<svg width="32" height="32" viewBox="0 0 32 32" fill="none" xmlns="http://www.w3.org/2000/svg">
<path fill-rule="evenodd" clip-rule="evenodd" d="M20.9395 10.6667C22.138 10.6667 23.2881 11.1159 23.2881 11.1159L22.915 13.3288C21.7977 12.6962 19.2554 12.5466 19.2549 13.7116C19.2549 14.8765 22.8984 15.1261 22.8984 17.8054C22.8984 20.3853 20.2106 21.3336 18.4287 21.3337C16.664 21.3337 15.503 20.7623 15.4814 20.7516L15.8691 18.4382C16.9383 19.3199 20.1777 19.5699 20.1777 18.1716C20.1775 16.7733 16.5664 16.7399 16.5664 14.0778C16.5666 11.2485 19.6437 10.6667 20.9395 10.6667ZM11.875 10.8513L7.7207 21.1559H5L2.73145 12.2028C3.10445 12.4333 3.49159 12.7043 3.875 13.0231C5.23555 14.1544 5.90874 15.495 6.16016 16.0944L6.28125 16.4118V16.4128L6.28027 16.4118L6.5752 17.9382L9.06445 10.8513H11.875ZM13.8721 21.1559H11.2607L12.8936 10.8513H15.5049L13.8721 21.1559ZM29.9092 10.8503L32 21.1559H29.6025L29.2969 19.6247H25.9775L25.4326 21.1559H22.7109L26.6055 11.6188C26.6055 11.6188 26.8413 10.8503 27.8105 10.8503H29.9092ZM26.7295 17.5104H28.873L28.1016 13.654L26.7295 17.5104ZM2.30859 11.9567C2.42475 12.0212 2.54329 12.0891 2.66309 12.1618C2.54327 12.0891 2.42476 12.0211 2.30859 11.9567ZM2.02441 11.8044C2.07418 11.83 2.12505 11.8553 2.17578 11.8825C2.12505 11.8553 2.07418 11.83 2.02441 11.8044ZM1.72754 11.6559C1.77959 11.6807 1.8323 11.7065 1.88574 11.7331C1.8323 11.7065 1.77958 11.6807 1.72754 11.6559ZM0.99707 11.3444C1.19534 11.4208 1.41711 11.511 1.6543 11.6218C1.41713 11.511 1.1953 11.4209 0.99707 11.3444ZM0.578125 11.1921C0.641238 11.213 0.708826 11.2358 0.780273 11.2614C0.708841 11.2358 0.64122 11.2131 0.578125 11.1921ZM0.258789 11.0934C0.306327 11.107 0.360017 11.122 0.418945 11.1403C0.36003 11.122 0.306307 11.107 0.258789 11.0934Z" fill="#2566AF"/>
<path d="M6.29275 16.2684L5.41249 11.7496C5.41249 11.7496 5.30605 10.8449 4.17151 10.8449H0.048381L0 11.0151C0 11.0151 1.98174 11.4258 3.88257 12.9645C5.70008 14.4353 6.29275 16.2684 6.29275 16.2684Z" fill="#E6A540"/>
</svg>
